<?xml version="1.0" standalone="no"?>
<!DOCTYPE svg PUBLIC "-//W3C//DTD SVG 20010904//EN"
 "http://www.w3.org/TR/2001/REC-SVG-20010904/DTD/svg10.dtd">
<svg version="1.0" xmlns="http://www.w3.org/2000/svg"
 width="1500.000000pt" height="1500.000000pt" viewBox="0 0 1500.000000 1500.000000"
 preserveAspectRatio="xMidYMid meet">
<metadata>
Created by potrace 1.14, written by Peter Selinger 2001-2017
</metadata>
<g transform="translate(0.000000,1500.000000) scale(0.100000,-0.100000)"
fill="#000000" stroke="none">
<path d="M0 7500 l0 -7500 7500 0 7500 0 0 7500 0 7500 -7500 0 -7500 0 0
-7500z m8075 4430 c285 -19 536 -57 1012 -155 719 -148 1357 -326 2373 -660
1055 -347 1581 -408 2207 -255 99 24 115 25 133 13 34 -24 189 -267 266 -418
79 -157 94 -205 73 -232 -41 -49 -324 -146 -492 -167 -320 -42 -962 -40 -1190
4 -201 39 -858 224 -1352 382 -329 105 -519 163 -650 198 -936 252 -1770 390
-2610 431 -369 18 -654 5 -1020 -47 -745 -105 -1134 -201 -2100 -519 -333
-109 -730 -236 -845 -270 -25 -7 -119 -36 -210 -63 -453 -139 -1099 -311
-1460 -391 -268 -59 -656 -128 -665 -119 -5 5 14 485 25 638 6 80 18 198 27
263 l16 117 281 0 c616 0 851 51 1986 430 278 92 618 206 755 253 497 170 860
271 1350 377 449 97 1017 174 1425 193 165 8 520 6 665 -3z m115 -1326 c683
-62 1490 -275 3025 -800 560 -191 712 -240 807 -264 274 -66 454 -90 733 -97
257 -6 418 7 660 52 172 32 343 43 366 23 9 -7 58 -105 109 -218 51 -113 98
-218 106 -235 83 -181 141 -322 134 -329 -5 -5 -87 -19 -182 -33 -862 -119
-1318 -246 -1713 -476 -341 -199 -691 -637 -780 -977 -69 -265 -87 -538 -46
-685 28 -101 59 -153 135 -233 84 -88 193 -158 403 -258 98 -46 185 -88 193
-93 35 -19 12 -35 -94 -63 -214 -55 -342 -124 -471 -253 -187 -185 -275 -360
-462 -910 -379 -1119 -684 -1692 -977 -1840 -83 -42 -103 -44 -119 -7 -16 37
-15 735 2 927 33 373 125 806 376 1760 201 764 248 1007 248 1290 1 223 -37
324 -134 353 -58 17 -108 10 -183 -27 -81 -40 -169 -121 -339 -315 -375 -426
-816 -865 -1292 -1287 -423 -375 -699 -598 -1170 -944 -76 -56 -276 -191 -407
-275 -971 -627 -2036 -1075 -2960 -1244 -359 -66 -656 -91 -988 -83 -424 11
-748 76 -1065 214 -598 259 -1027 816 -1149 1493 -64 347 -19 787 109 1092
282 669 1080 1023 1749 776 173 -63 359 -185 460 -300 59 -67 121 -187 141
-269 19 -81 19 -236 0 -316 -47 -201 -212 -392 -400 -462 -264 -99 -583 88
-636 373 -11 61 -7 108 17 190 8 27 14 60 14 73 0 31 -26 30 -132 -3 -360
-114 -580 -390 -613 -769 -18 -213 59 -506 188 -710 58 -93 178 -235 255 -302
80 -70 202 -153 292 -198 149 -75 392 -147 615 -181 166 -26 659 -26 847 -1
1037 140 2132 616 3347 1454 259 179 672 503 865 678 6 6 61 55 121 110 174
157 521 505 632 634 175 201 257 326 251 379 -3 23 -9 28 -43 34 -104 18 -492
4 -830 -29 -242 -25 -943 -24 -1205 0 -804 75 -1551 231 -2462 513 -192 59
-474 155 -1043 352 -562 195 -1065 326 -1740 452 -148 28 -279 53 -289 56 -18
6 -19 14 -12 127 3 66 6 249 6 407 l0 288 98 22 c53 12 162 37 242 56 80 19
177 42 215 51 111 25 1406 349 1550 387 72 19 202 53 290 76 88 23 327 86 530
140 204 54 485 128 625 165 140 38 370 98 510 136 693 183 969 245 1360 303
492 73 888 88 1310 50z"/>
<path d="M6695 9703 c-75 -15 -538 -121 -775 -177 -236 -56 -763 -188 -1245
-311 -413 -105 -1347 -332 -1592 -386 -57 -12 -103 -25 -103 -28 0 -3 82 -31
183 -62 186 -58 317 -100 957 -310 1153 -379 1681 -507 2420 -589 351 -38 493
-43 1160 -36 954 9 1162 20 1545 81 888 142 1778 461 2399 860 l60 38 -140 70
c-322 162 -696 307 -1264 492 -439 143 -662 198 -1275 320 -303 59 -305 60
-305 43 0 -8 7 -61 16 -119 21 -135 14 -321 -15 -434 -62 -237 -208 -416 -425
-525 -184 -92 -401 -128 -655 -109 -522 39 -844 305 -891 735 -11 104 -10 132
16 327 9 67 13 122 8 126 -5 4 -40 2 -79 -6z"/>
</g>
</svg>
